PathFileType	4	(X/Y/Z)	Patient4_TMGait_0pt6_01_right_02.trc.trc
DataRate	CameraRate	NumFrames	NumMarkers	Units	OrigDataRate	OrigDataStartFrame	OrigNumFrames
82.840236686391	82.840236686391	4	33	mm	82.840236686391	106	       141
Frame#	Time	Sacral			L.Shoulder			Chest			R.Shoulder			Neck			R.ASIS			L.ASIS			R.Thigh.Superior			R.Thigh.Lateral			R.Thigh.Inferior			R.Patella			L.Thigh.Superior			L.Thigh.Lateral			L.Thigh.Inferior			L.Patella			L.Shank.Superior			L.Shank.Lateral			L.Shank.Inferior			R.Shank.Superior			R.Shank.Lateral			R.Shank.Inferior			R.Heel			R.Midfoot.Superior			R.Midfoot.Lateral			R.Toe			L.Heel			L.Midfoot.Lateral			L.Midfoot.Superior			L.Toe			L.Elbow			L.Wrist			R.Elbow			R.Wrist			
		X1	Y1	Z1	X2	Y2	Z2	X3	Y3	Z3	X4	Y4	Z4	X5	Y5	Z5	X6	Y6	Z6	X7	Y7	Z7	X8	Y8	Z8	X9	Y9	Z9	X10	Y10	Z10	X11	Y11	Z11	X12	Y12	Z12	X13	Y13	Z13	X14	Y14	Z14	X15	Y15	Z15	X16	Y16	Z16	X17	Y17	Z17	X18	Y18	Z18	X19	Y19	Z19	X20	Y20	Z20	X21	Y21	Z21	X22	Y22	Z22	X23	Y23	Z23	X24	Y24	Z24	X25	Y25	Z25	X26	Y26	Z26	X27	Y27	Z27	X28	Y28	Z28	X29	Y29	Z29	X30	Y30	Z30	X31	Y31	Z31	X32	Y32	Z32	X33	Y33	Z33	

106	3.067500000000	597.207136542507	1011.690258820523	413.884970864723	777.904165663245	1439.663313931878	234.345028191548	878.875751591710	1372.650261947623	397.040405857190	792.253236885843	1444.432433094167	568.800839909106	758.286320789109	1499.677034932472	388.439823723248	819.150649275379	948.251981494959	536.932988967233	817.174000951574	967.309665307291	262.522674472013	906.354267151306	782.607340858179	507.049340368604	871.162593168551	660.938440756934	578.867884145426	961.752791144687	624.398673520416	499.569400015651	985.930132671734	512.956380039130	521.851495070902	853.000403452334	749.254894586102	294.819189823146	758.403036629434	638.004430172456	236.654741216275	835.143388157469	556.890087647103	302.856993728902	830.078248385179	489.333436928312	314.770174117480	806.564614910177	418.976658577673	307.474286306909	719.431073507564	301.844739693486	260.892741267395	771.970820445648	193.985763510259	335.304462938564	915.859007839617	433.541696427040	527.316547770838	799.484024620458	381.382829007153	587.410747875428	794.864136583736	272.902777639495	536.066549400900	599.750113738961	186.835443762786	507.393281351890	774.592088548980	153.986980155140	546.698145371390	666.821425930726	136.253552501568	580.350278328371	856.297896246102	54.214257350775	574.834642482094	646.692766048823	38.013931309636	385.979212408481	716.546397597083	34.374776050175	301.164372908206	800.960557838574	96.039394859321	323.544565948980	927.820331864523	44.826521639056	289.333395706904	845.567597704559	1105.002155339018	95.523384724422	1082.890404483692	1043.380237797062	174.528768185396	746.185654588743	1096.239398997170	684.458925424115	802.787864863209	841.141193247441	695.437051853380	
107	3.079571428571	596.147778900512	1011.877220850552	412.852158877093	778.802124231112	1440.115688907873	234.769635556784	878.678660828968	1372.532435621832	397.855627504077	791.241605201948	1444.406859855974	569.100112312071	758.567354062820	1499.933669000137	388.576015970161	817.864922774015	948.688176706291	536.931847879551	816.228175483662	967.140371497494	262.489399883793	906.260729676356	784.732287394089	506.920960115256	872.546863893261	662.860738558694	578.999939499456	963.248826566567	627.140243200946	499.597548822802	989.351966900986	517.187568813943	522.119393258673	850.632397203790	748.433405882635	294.870884005561	755.070690670686	637.905994585622	236.330743439751	830.744075452336	556.166806537359	302.711329633569	824.955889811987	488.707570358035	314.777391178100	801.184065630071	418.528648200620	307.449913002437	713.574645932917	301.821058488004	260.794682588652	765.342766421664	193.730254159264	335.328739791455	922.785473985028	435.766590124358	527.799892862048	809.447440632939	378.068158388264	588.353197468170	810.001691898131	269.391773036439	537.097287618611	619.320206432348	173.803332699226	509.008503082904	795.567893959423	149.642562017511	547.983166179797	688.967329246087	126.933941398262	582.118820657925	882.148915678786	54.067543207741	576.568864957350	639.394425772443	38.030878570303	385.967329087892	709.279785402576	34.375363673609	301.174716513388	793.747371061097	95.988340168782	323.597070554279	920.612880621181	44.589559468285	289.357318957771	856.850915886714	1109.566354491495	94.973778163033	1095.531220244682	1066.636568548936	180.945651909561	737.945469600060	1098.068955143801	685.762577716013	784.858252694923	841.356985187302	700.538587990271	
108	3.091642857143	595.157545356814	1012.019953449111	411.932248306605	779.622891372499	1440.477168725649	235.320689804702	878.444275278518	1372.369708539272	398.761206851745	790.240076070212	1444.376668112571	569.496775508266	758.808084676025	1500.120822606660	388.820349598538	816.681969771296	948.987340541353	536.947463176710	815.404680366615	966.995871356170	262.533413821624	905.875034934435	786.325750623205	506.917429424165	873.151444030952	664.299053798832	579.255608994198	963.934279554377	629.160234447243	499.870984050262	991.747760724537	520.940254198639	522.588231263785	848.323928761057	747.584305185641	294.939348494098	751.680513548786	637.825897197314	236.029915885114	826.249842660347	555.447935198852	302.563251103921	819.738968104003	488.102258747249	314.767115856203	795.712849439870	418.093584742223	307.420066874564	707.644266558005	301.797127035224	260.703740611877	758.681175689025	193.486170844219	335.352349934952	928.988566727625	437.661996117567	528.442734702505	819.244309486762	374.196302683569	589.515975733312	825.348537052928	265.650996773235	538.283771395473	639.993599238852	160.248503370245	510.789262001746	817.232686144769	145.243803994555	549.366302431502	712.135402191964	117.321973767734	584.011602704735	908.698295130427	54.298472263804	578.280253747937	632.113730796870	38.057625722386	385.949040931040	702.014916264419	34.377252925677	301.188987890277	786.535871247767	95.939622997154	323.646187898092	913.403082612326	44.362781198904	289.379578417743	868.371536962624	1114.413763666536	94.911474324563	1106.914037737949	1089.702238956767	187.345433888598	730.008614869090	1100.026963833542	687.182163815027	768.440583522113	842.320621989736	705.195345459052	
109	3.103714285714	594.270901972501	1012.115495838554	411.126810317655	780.377806666687	1440.744751226032	235.993895462751	878.184460274184	1372.164283010191	399.756826347494	789.249990086659	1444.341965786325	569.987638543976	759.011612234683	1500.231167361166	389.182340787226	815.607872447351	949.148768330853	537.008898219301	814.755913349505	966.885804856871	262.662200932961	905.180279216195	787.345757962458	507.035357697153	872.935486662405	665.208183030449	579.645556145387	963.773456723026	630.405479869263	500.392709801668	993.089604681724	524.156508195885	523.238022806351	846.090949731504	746.704585347332	295.047407897454	748.247817134363	637.765834259997	235.766592599629	821.665643043312	554.732789336001	302.438131924695	814.438774870153	487.520336002626	314.750887895456	790.157548912922	417.675615838045	307.394501261621	701.643558693721	301.778717961541	260.621500047660	751.988660429730	193.257149874139	335.380095016102	934.403681311032	439.228104692839	529.240898900908	828.814434922062	369.873728096389	590.875783428436	840.795852831184	261.832331571565	539.609316344086	661.710130568964	146.472042098600	512.663598256609	839.439358673589	140.981523191362	550.829665810265	736.193488273065	107.678837362342	585.972226819294	935.696550529628	55.080951013013	579.964457701743	624.848435390675	38.096940059086	385.922657608507	694.748937839443	34.382336864836	301.205899325703	779.322796372086	95.895380313286	323.691063876858	906.184708334559	44.150755122451	289.400647427942	880.025446476892	1119.559579883929	95.314747473631	1117.093873062200	1112.337201633828	193.612587507384	722.446350845680	1102.055844855623	688.677902337420	753.650120926324	843.801066301083	709.438391334936	
